<svg xmlns="http://www.w3.org/2000/svg" id="Layer_1" version="1" viewBox="0 0 787 96"><style>.st1{fill:#fdfdfd}.st9{fill:#d5d5d5}</style><path d="M262 64c0-2-1-3-3-3h-64l-16 1-1-3-1-49 2-4h84l1 4v45l-1 35-1-1V64zm346-2h-33a1039806 1039806 0 0 0-49 1v27h-1l-1-4V10c0-1-1-4 3-4h82v26c-2 2-4 1-6 1h-74l-1 1h75l6 1v25l-1 2zm174 28h-80c-2 0-4 0-4-3V8l1-1c0-1 0-1 0 0a4564 4564 0 0 0 83 0l1 2v22c0 1 1 4-2 2v-8c-1-5 2-12-2-15-3-3-10-1-15-1h-53c-6 0-6 0-6 6v13l-1 5h-1l-1-22v22c1 2 3 1 4 1h73c4 0 5 2 4 5v19c0 5 0 6-5 6h-72c-2 0-3-1-4 1v22c0 2 1 1 1 1l-1-23h2l1 7v12c0 5 0 5 5 5h65c5 0 5 0 5-5l1-14c0-2-1-4 1-5l1 1c0 8 1 17-1 25zM352 6h83c3 0 2 2 2 3v20c0 1 0 3-2 3l-1-5V12c0-3-1-4-4-4h-72c-3 0-4 0-4 3v21c1 2 3 1 4 1h73c5 0 6 2 6 6v47l-1 4h-86 1V64l2 1v19c0 3 1 4 5 4h72c2 0 4 0 4-3V64c-1-2-3-1-5-1h-72c-6 0-7-1-7-7V11c0-2 0-4 2-5zM6 6h78c2-1 3-2 5 0v23c0 3-1 4-3 4H12c-1 0-3-1-5 1v24l-1 6H5c-2-3 0-6 0-9V9c0-1-1-3 1-3z"/><path d="M522 90h-84l-1-5V69c0-5 1-6 6-6h75l5 1 1 2v22l-2 2zM439 6h83l2 3v20l-1 3-5 1h-74c-6 0-7 0-7-6l1-20 1-1zM266 33v1l4 1h76c2 0 4 0 4 3v22l-1 1h-84l-1-7V11c0-2-1-4 2-5v27z"/><path fill="#010101" d="M5 64h1c2 6 1 12 1 18s0 6 7 6h62c6 0 6 0 6-5V69l1-5h1l1 23V64h3v25-25c-1-2-3-1-4-1H53c-6 0-7-1-7-6V39c0-2 0-5 3-5h38c3 0 3 3 3 6v46c0 2 1 4-2 5l-29-1-54 1V64z"/><path d="M782 32l1-1V8l-1-2c1-4 3 0 4-1-2 1-3 2-3 4v16c0 3 0 7 3 9 1 1 3 4-1 4-2 0-2 1-2 3v6c0 5-1 10 3 14-4 4-2 10-3 15v11c0 1 1 3-1 3l1-24-1-2-6 1h-67c-2 0-4 1-6-1h-1c0 1 0 1 0 0-1 0-3 0-3-2l3-1h76c4 1 5 0 5-4V38c0-2-1-3-4-3h-77l-3-1c0-2 2-1 3-2h1l6-1h67l6 1z" class="st1"/><path fill="#484848" d="M91 36V6h85c2 1 1 3 1 4v47c0 5 0 5-5 5h-31 30c2 0 4 0 4 2l-5 1h-30c-5 0-5 1-5 6v14c0 2 1 3 4 3h31c3 0 4-1 4-4V69l1-5c2 0 2 1 2 2a375 375 0 0 1-1 24c-1 2-3 1-5 1h-33c-5 0-6 0-6-6V67c0-2-1-4-3-5H95c-2 0-2 1-2 3v22c0 1 1 3-2 3l-1-1a2211 2211 0 0 1 1-53z"/><path d="M439 6v42l-1 42h-2V38c0-3-2-2-4-2h-78c-3-1-2-2-1-3l5-1h72l5 1c2-3 1-5 1-8 0-6 1-12-1-18l1-1c0-2 0-3 2-3 3 1 1 3 1 4z" class="st1"/><path d="M352 64h-1l-4-3h2V11l-1-5c-2-2 2-2 2-3 0 1 0 2 2 3l-1 53c0 3 2 2 4 2h78c2 0 3 0 1 3l-5 1h-72l-5-1zM176 90V66l-1-2h-38l-2-1c0-2 1-1 2-1h36c1 0 3 0 3-3V6h3l-1 21v33l1 31c-1 2-2-1-3-1z" class="st1"/><path fill="#606060" d="M438 89V9l1-3v22c0 3 1 4 4 4h79c1 1 0 1-1 2h-74c-6 0-6 0-6 6v17c0 5 0 5 5 5h70l6 1v1h-79c-4 0-4 1-4 4v22l-1-1z"/><path fill="#494949" d="M695 64l1 2v22c0 2 0 2-3 2h-79c-3 0-2-1-3-3V6h1l1 4v48c0 2-1 4 1 5l32 1 49-1v1c-2 2-4 1-6 1h-73c-1 0-2 1-2 3v17c0 2 1 3 2 3h72c6 0 6 0 6-6V69l1-5z"/><path d="M129 62c3-1 4 0 4 3v23c0 2 1 3 3 3l40-1c0 2-1 3-3 3h-36c-5 0-7-1-7-6V65v17h-1V62zm137-29V6h-1v55l-2-1V11l-1-5c2-1 2-2 2-5l3 7v23l-1 2zM91 36v5l-1 48 1 1-2 2-1-2c2 0 1-2 1-3V38c0-2 0-4-2-4H48c-12 2-25 0-38 1l-4-1c0-3 2-2 3-2h75c5 0 5 0 5-5V6l1 2v24c0 2-1 3 1 4zm431 28v-1l1-20c0-2 0-4-2-7-1 0-1-2 1-2V6c2 1 3-3 5 0-2 0-2 0-2 2v82h-3V64z" class="st1"/><path fill="#6c6c6c" d="M348 6c3 0 1 2 1 3v25l1 23-1 4V39c0-3-1-4-4-4h-75c-1 0-3 1-4-1h79c4 1 3-2 3-4V6z"/><path fill="#191919" d="M265 62v-1h84l-2 1a658 658 0 0 0-39 0v25c0 1 1 3-1 3l-1-7 1-17c0-4-2-5-5-5l-37 1z"/><path fill="#6a6a6a" d="M608 62c2-4 1-7 1-11V35l-1-1v-1l1-1V6v14l1 13v57h-2V62z"/><path d="M614 63c-3 0-2-2-2-4V6c2 0 2 1 2 3l-1 25 1 21c0 1-2 3 1 4-2 1-2 3-1 4zM5 64v26l-1-3V68l-1-4c1-3-1-1-3-1 5-3 4-8 4-12L3 32c2-1 1-3 1-4V9c0-2 0-3-2-4 1 1 3-3 4 1L5 8v56zM524 3V2l85 1h-85zM349 3c3-2 75-2 86-1h-79c-2 0-4 2-7 1zm3 89h83v1h-83v-1zM172 2H94h78zM84 4H7V3h77v1zm697 0h-78V3h78v1zM82 93H7v-1h75v1zM608 4h-76V3l76 1zM442 92h76l-76 1v-1zm173-33l3-1h70l3 1h-76zM172 4H97V3l75 1zm271-1h75v1h-75V3z" class="st1"/><path d="M428 4h-68V3l68 1z" class="st1"/><path fill="#646464" d="M179 90c-2-6-1-12-1-18V60l1 2h1v1h-1v27z"/><path d="M91 91c2-1 1-3 1-4V64c0-2 1-3 3-2-2 1-2 2-2 4 0 8-1 16 1 24l-2 2-1-1zm171-27v23c0 1-1 2 1 3 0 3-2 3-4 2 2-1 2-3 2-5V68l1-4zm45 26v-3l1-22v-3 27c0 2 0 3-1 1zm4-28h1v27h-1V62zm215 28V63v10l1 14-1 3zm-216-1V63v26zM3 32V7v25zm0 32zm348 26c-2-3-1-6-1-10v-9h1v19zM89 6h-5l3-3 2 1v2zm217 77zM435 1l-6-1 6 1zM134 94c-1 1-2 3-4 1 2-1 3-2 4-1zm224 0h-5 5zM1 5l2-4c1 2 0 3-2 4zm784-4c-1 2 2 2 1 4-1-1-2-2-1-4zM179 63v-1h6v1h-6zm259 30h-1v-2l1 2zm87 0c1-2 2-2 4-1l-4 1zm-219-1h3c0 2-1 2-2 1l-1-1zm44 1h-4 4zM266 2c2 0 2 1 2 3l-2-3zm346 4h-1V4h1v2zm87 0V4l1-1c1 1-1 2-1 3zm-6 53l-1 1h-1l1-1h1z" class="st1"/><path d="M221 32h37c2 0 4-1 4 2 0 2-2 1-4 1h-77l-2-1c0-2 1-2 2-2h40zm387 1v1l-3 1h-76l-3-1v-2h78l4 1z" class="st9"/><path d="M526 34l20 1h58l4-1 1 1h-79c-2 0-3 1-4-1zm82-1l-4-1-73 1-5-1h83l-1 1zm174-1h-79V10c0-2 1-4 4-4h71c3 0 4 2 4 4v22zm-79 32h79v22c0 3-1 4-4 4h-71c-3 0-4-1-4-4V64zm-1 0h1v25h-1V64zm1-32h-1V7h1v25zM352 64h82l1 3v19c0 3 0 4-3 4h-77c-2 0-3-1-3-4V64zm83-32h-82l-1-3V10c0-3 1-4 4-4h76c2 0 3 1 3 4v22zM6 64h77v22c1 3 0 4-3 4H9c-2 0-3-1-3-3V64z"/><path d="M51 35c0-2 1-2 3-2h32c1 0 2 0 0 1l-35 1z" class="st1"/><path d="M87 64h1v25h-1V64zm-1 0h1v25h-1V64zm-2 0h1v25h-1V64zm9-32l-1-4V10c0-3 0-4 3-4l77 1c2 0 3-1 3 2v22l-1 1-4 1H98l-5-1zm39 29h-3v-1l-5-1h-23c-3 0-5 0-7 2-3 0-1-3-2-4 2-5 1-11 1-16l3-6h77c1 0 2 1 2 3v20l-32-1c-4 0-8 1-11 4zm43 3v22c0 3 0 4-3 4h-35c-2 0-3-1-3-4V67c0-2 1-3 4-3h37z"/><path d="M93 32h81c1 1 2 2 0 3H96c-1 0-5 1-3-3z" class="st9"/><path d="M132 61c1-4 4-5 7-5h30l6 2c0 1 1 3-2 3h-41zm-37 0c0-3 1-3 3-3h28c2 0 3 2 5 1l-2 2H95z"/><path d="M91 90c-2-1-1-2-1-3V41c0-1-1-3 1-3v52z" class="st1"/><path d="M96 35c-4 6-2 13-2 19 0 1 1 3-2 3V39c0-3 1-4 4-4zm599 29v22c0 3 0 4-3 4h-77c-2 0-3-1-3-4V68c0-3 1-4 4-4h79z"/></svg>